<?xml version="1.0" encoding="UTF-8" standalone="no"?>
<!-- Created with Inkscape (http://www.inkscape.org/) -->

<svg
   xmlns:dc="http://purl.org/dc/elements/1.1/"
   xmlns:cc="http://creativecommons.org/ns#"
   xmlns:rdf="http://www.w3.org/1999/02/22-rdf-syntax-ns#"
   xmlns:svg="http://www.w3.org/2000/svg"
   xmlns="http://www.w3.org/2000/svg"
   xmlns:sodipodi="http://sodipodi.sourceforge.net/DTD/sodipodi-0.dtd"
   xmlns:inkscape="http://www.inkscape.org/namespaces/inkscape"
   width="210mm"
   height="297mm"
   viewBox="0 0 744.09448819 1052.3622047"
   id="svg2"
   version="1.1"
   inkscape:version="0.91 r13725"
   sodipodi:docname="default_pics.svg">
  <defs
     id="defs4" />
  <sodipodi:namedview
     id="base"
     pagecolor="#ffffff"
     bordercolor="#666666"
     borderopacity="1.0"
     inkscape:pageopacity="0.0"
     inkscape:pageshadow="2"
     inkscape:zoom="1.1506758"
     inkscape:cx="431.4359"
     inkscape:cy="593.27803"
     inkscape:document-units="px"
     inkscape:current-layer="layer1"
     showgrid="false"
     inkscape:window-width="1280"
     inkscape:window-height="744"
     inkscape:window-x="-4"
     inkscape:window-y="-4"
     inkscape:window-maximized="1" />
  <metadata
     id="metadata7">
    <rdf:RDF>
      <cc:Work
         rdf:about="">
        <dc:format>image/svg+xml</dc:format>
        <dc:type
           rdf:resource="http://purl.org/dc/dcmitype/StillImage" />
        <dc:title />
      </cc:Work>
    </rdf:RDF>
  </metadata>
  <g
     inkscape:label="Vrstva 1"
     inkscape:groupmode="layer"
     id="layer1">
    <g
       id="g4167"
       inkscape:export-filename=".\unknown.png"
       inkscape:export-xdpi="76.445671"
       inkscape:export-ydpi="76.445671">
      <circle
         inkscape:export-filename=".\unknown.png"
         inkscape:export-ydpi="76.445671"
         inkscape:export-xdpi="76.445671"
         r="56.510723"
         cy="69.379745"
         cx="80.331398"
         id="path4140"
         style="opacity:1;fill:#f2f2f2;fill-opacity:1;stroke:none;stroke-width:5;stroke-miterlimit:4;stroke-dasharray:none;stroke-opacity:1" />
      <circle
         r="51.189083"
         cy="69.379745"
         cx="80.331398"
         id="path4144"
         style="opacity:1;fill:#ffffff;fill-opacity:1;stroke:none;stroke-width:5;stroke-miterlimit:4;stroke-dasharray:none;stroke-opacity:1" />
      <text
         sodipodi:linespacing="125%"
         id="text4136"
         y="103.16009"
         x="51.500637"
         style="font-style:normal;font-variant:normal;font-weight:bold;font-stretch:normal;font-size:93.42624664px;line-height:125%;font-family:Arial;-inkscape-font-specification:'Arial, Bold';text-align:start;letter-spacing:0px;word-spacing:0px;writing-mode:lr-tb;text-anchor:start;fill:#e6e6e6;fill-opacity:1;stroke:none;stroke-width:1px;stroke-linecap:butt;stroke-linejoin:miter;stroke-opacity:1;"
         xml:space="preserve"><tspan
           y="103.16009"
           x="51.500637"
           id="tspan4138"
           sodipodi:role="line">?</tspan></text>
    </g>
    <g
       id="g4173"
       inkscape:export-filename=".\ring.png"
       inkscape:export-xdpi="76.883652"
       inkscape:export-ydpi="76.883652"
       transform="translate(-19.873546,-7.097695)">
      <path
         inkscape:export-ydpi="76.883652"
         inkscape:export-xdpi="76.883652"
         inkscape:export-filename=".\ring.png"
         inkscape:connector-curvature="0"
         id="path4165"
         d="m 269.72873,33.366785 a 56.257309,56.257309 0 0 0 -76.1949,0.02348 l 18.99245,18.992449 a 29.395714,29.395714 0 0 1 38.19758,-0.01105 l 19.00487,-19.004876 z"
         style="opacity:1;fill:#e6e6e6;fill-opacity:1;stroke:none;stroke-width:5;stroke-miterlimit:4;stroke-dasharray:none;stroke-opacity:1" />
      <path
         inkscape:export-ydpi="76.883652"
         inkscape:export-xdpi="76.883652"
         inkscape:export-filename=".\ring.png"
         inkscape:connector-curvature="0"
         id="path4163"
         d="m 272.93143,36.613678 -18.9952,18.995208 a 29.395714,29.395714 0 0 1 0.0124,38.196197 l 19.00625,19.006257 a 56.257309,56.257309 0 0 0 -0.0235,-76.197662 z"
         style="opacity:1;fill:#f2f2f2;fill-opacity:1;stroke:none;stroke-width:5;stroke-miterlimit:4;stroke-dasharray:none;stroke-opacity:1" />
      <path
         inkscape:export-ydpi="76.883652"
         inkscape:export-xdpi="76.883652"
         inkscape:export-filename=".\ring.png"
         inkscape:connector-curvature="0"
         id="path4161"
         d="m 190.28281,36.591582 a 56.257309,56.257309 0 0 0 0.0235,76.197658 L 209.3001,93.795416 a 29.395714,29.395714 0 0 1 -0.011,-38.197582 L 190.28281,36.591582 Z"
         style="opacity:1;fill:#f2f2f2;fill-opacity:1;stroke:none;stroke-width:5;stroke-miterlimit:4;stroke-dasharray:none;stroke-opacity:1" />
      <path
         inkscape:export-ydpi="76.883652"
         inkscape:export-xdpi="76.883652"
         inkscape:export-filename=".\ring.png"
         inkscape:connector-curvature="0"
         id="path4137"
         d="m 250.71143,97.020206 a 29.395714,29.395714 0 0 1 -38.19758,0.01105 L 193.5076,116.03752 a 56.257309,56.257309 0 0 0 76.19766,-0.0235 L 250.71143,97.020206 Z"
         style="opacity:1;fill:#e6e6e6;fill-opacity:1;stroke:none;stroke-width:5;stroke-miterlimit:4;stroke-dasharray:none;stroke-opacity:1" />
    </g>
    <circle
       style="opacity:1;fill:#f2f2f2;fill-opacity:1;stroke:none;stroke-width:5;stroke-miterlimit:4;stroke-dasharray:none;stroke-opacity:1"
       id="path4179"
       cx="339.60745"
       cy="69.680344"
       r="58.538013"
       inkscape:export-xdpi="73.798187"
       inkscape:export-ydpi="73.798187"
       inkscape:export-filename=".\ring_w_handles.png" />
    <circle
       style="opacity:1;fill:#ffffff;fill-opacity:1;stroke:none;stroke-width:5;stroke-miterlimit:4;stroke-dasharray:none;stroke-opacity:1"
       id="path4181"
       cx="339.60745"
       cy="69.680344"
       r="25.880064" />
    <g
       id="g4239"
       transform="translate(-48.350428,-11.356313)">
      <g
         id="g4231">
        <rect
           style="opacity:1;fill:#ffffff;fill-opacity:1;stroke:none;stroke-width:5;stroke-miterlimit:4;stroke-dasharray:none;stroke-opacity:1"
           id="rect4183"
           width="9.0338907"
           height="26.348848"
           x="425.34814"
           y="67.862236"
           ry="4.5169454" />
        <rect
           style="opacity:1;fill:#b3b3b3;fill-opacity:1;stroke:none;stroke-width:5;stroke-miterlimit:4;stroke-dasharray:none;stroke-opacity:1"
           id="rect4187"
           width="4.8180752"
           height="19.573429"
           x="427.45605"
           y="71.249947"
           ry="2.4090376" />
      </g>
      <g
         transform="translate(3.011297,0)"
         id="g4235">
        <rect
           ry="4.5169454"
           y="67.862236"
           x="338.52243"
           height="26.348848"
           width="9.0338907"
           id="rect4195"
           style="opacity:1;fill:#ffffff;fill-opacity:1;stroke:none;stroke-width:5;stroke-miterlimit:4;stroke-dasharray:none;stroke-opacity:1" />
        <rect
           ry="2.4090376"
           y="71.249947"
           x="340.63034"
           height="19.573429"
           width="4.8180752"
           id="rect4197"
           style="opacity:1;fill:#b3b3b3;fill-opacity:1;stroke:none;stroke-width:5;stroke-miterlimit:4;stroke-dasharray:none;stroke-opacity:1" />
      </g>
    </g>
    <circle
       r="57.136444"
       cy="942.29163"
       cx="157.54414"
       id="circle4258"
       style="opacity:1;fill:#b3b3b3;fill-opacity:1;stroke:none;stroke-width:5;stroke-miterlimit:4;stroke-dasharray:none;stroke-opacity:1" />
    <g
       id="g4289"
       transform="translate(-138.78454,475.48929)">
      <path
         style="opacity:1;fill:#ff0000;fill-opacity:1;stroke:none;stroke-width:5;stroke-miterlimit:4;stroke-dasharray:none;stroke-opacity:1"
         d="m 345.30277,388.01816 a 78.784351,78.784351 0 0 0 -78.7849,78.78491 78.784351,78.784351 0 0 0 78.7849,78.7835 78.784351,78.784351 0 0 0 78.78491,-78.7835 78.784351,78.784351 0 0 0 -78.78491,-78.78491 z m 0,2.29426 a 76.489663,76.489663 0 0 1 76.48926,76.49065 76.489663,76.489663 0 0 1 -76.48926,76.48925 76.489663,76.489663 0 0 1 -76.48924,-76.48925 76.489663,76.489663 0 0 1 76.48924,-76.49065 z"
         id="path4260"
         inkscape:connector-curvature="0" />
      <path
         inkscape:connector-curvature="0"
         id="path4287"
         d="m 247.35458,388.01816 a 78.784351,78.784351 0 0 0 -78.7849,78.78491 78.784351,78.784351 0 0 0 78.7849,78.7835 78.784351,78.784351 0 0 0 78.78491,-78.7835 78.784351,78.784351 0 0 0 -78.78491,-78.78491 z m 0,2.29426 a 76.489663,76.489663 0 0 1 76.48926,76.49065 76.489663,76.489663 0 0 1 -76.48926,76.48925 76.489663,76.489663 0 0 1 -76.48924,-76.48925 76.489663,76.489663 0 0 1 76.48924,-76.49065 z"
         style="opacity:1;fill:#ff0000;fill-opacity:1;stroke:none;stroke-width:5;stroke-miterlimit:4;stroke-dasharray:none;stroke-opacity:1" />
    </g>
    <path
       style="opacity:1;fill:#f2f2f2;fill-opacity:1;stroke:none;stroke-width:5;stroke-miterlimit:4;stroke-dasharray:none;stroke-opacity:1"
       d="m 466.67425,14.679993 a 57.136444,57.136444 0 0 0 -1.8125,0.06445 76.489663,76.489663 0 0 0 -25.70313,57.072266 76.489663,76.489663 0 0 0 25.64649,57.041021 57.136444,57.136444 0 0 0 1.86914,0.0937 57.136444,57.136444 0 0 0 1.83984,-0.0918 76.489663,76.489663 0 0 0 25.67383,-57.042971 76.489663,76.489663 0 0 0 -25.67578,-57.072266 57.136444,57.136444 0 0 0 -1.83789,-0.06445 z"
       id="path4309"
       inkscape:export-filename=".\ball.png"
       inkscape:export-xdpi="75.609413"
       inkscape:export-ydpi="75.609413"
       inkscape:connector-curvature="0" />
    <path
       style="opacity:1;fill:#e6e6e6;fill-opacity:1;stroke:none;stroke-width:5;stroke-miterlimit:4;stroke-dasharray:none;stroke-opacity:1"
       d="m 461.20355,14.996399 a 57.136444,57.136444 0 0 0 -51.66602,56.81836 57.136444,57.136444 0 0 0 51.61133,56.861331 78.784351,78.784351 0 0 1 -24.28711,-56.859378 78.784351,78.784351 0 0 1 24.3418,-56.820313 z"
       id="path4307"
       inkscape:export-filename=".\ball.png"
       inkscape:export-xdpi="75.609413"
       inkscape:export-ydpi="75.609413"
       inkscape:connector-curvature="0" />
    <path
       style="opacity:1;fill:#e6e6e6;fill-opacity:1;stroke:none;stroke-width:5;stroke-miterlimit:4;stroke-dasharray:none;stroke-opacity:1"
       d="M 472.26214,15.010071 A 78.784351,78.784351 0 0 1 496.48479,71.816712 78.784351,78.784351 0 0 1 472.09417,128.67999 57.136444,57.136444 0 0 0 523.80901,71.814759 57.136444,57.136444 0 0 0 472.26214,15.010071 Z"
       id="circle4293"
       inkscape:export-filename=".\ball.png"
       inkscape:export-xdpi="75.609413"
       inkscape:export-ydpi="75.609413"
       inkscape:connector-curvature="0" />
    <rect
       style="opacity:1;fill:#ffffff;fill-opacity:1;stroke:none;stroke-width:5;stroke-miterlimit:4;stroke-dasharray:none;stroke-opacity:1"
       id="rect4327"
       width="149.26955"
       height="149.26955"
       x="563.51758"
       y="6.9745197"
       ry="0"
       inkscape:export-xdpi="58"
       inkscape:export-ydpi="58" />
    <rect
       style="opacity:1;fill:#f2f2f2;fill-opacity:1;stroke:none;stroke-width:5;stroke-miterlimit:4;stroke-dasharray:none;stroke-opacity:1"
       id="rect4311"
       width="124.91943"
       height="45.425247"
       x="587.12762"
       y="85.158142"
       ry="22.712624"
       inkscape:export-filename=".\rider.png"
       inkscape:export-xdpi="58.806606"
       inkscape:export-ydpi="58.806606" />
    <path
       sodipodi:type="star"
       style="opacity:1;fill:#e6e6e6;fill-opacity:1;stroke:none;stroke-width:5;stroke-miterlimit:4;stroke-dasharray:none;stroke-opacity:1"
       id="path4315"
       sodipodi:sides="3"
       sodipodi:cx="547.2323"
       sodipodi:cy="50.877441"
       sodipodi:r1="32.096966"
       sodipodi:r2="16.048483"
       sodipodi:arg1="1.0471976"
       sodipodi:arg2="2.0943951"
       inkscape:flatsided="true"
       inkscape:rounded="0.01"
       inkscape:randomized="0"
       d="m 563.28078,78.67423 c -0.48145,0.277968 -48.14545,-27.240854 -48.14545,-27.79679 0,-0.555936 47.664,-28.074753 48.14545,-27.796786 0.48146,0.277968 0.48146,55.315608 0,55.593576 z"
       inkscape:transform-center-x="4.9743877"
       transform="matrix(0.63418876,0,0,0.39999081,237.56463,45.28897)"
       inkscape:export-filename=".\rider.png"
       inkscape:export-xdpi="58.806606"
       inkscape:export-ydpi="58.806606" />
    <circle
       style="opacity:1;fill:#f2f2f2;fill-opacity:1;stroke:none;stroke-width:5;stroke-miterlimit:4;stroke-dasharray:none;stroke-opacity:1"
       id="path4313"
       cx="614.80865"
       cy="60.316212"
       r="27.681011"
       inkscape:export-filename=".\rider.png"
       inkscape:export-xdpi="58.806606"
       inkscape:export-ydpi="58.806606" />
    <circle
       style="opacity:1;fill:#ffffff;fill-opacity:1;stroke:none;stroke-width:5;stroke-miterlimit:4;stroke-dasharray:none;stroke-opacity:1"
       id="path4317"
       cx="604.97583"
       cy="49.981499"
       r="5.2445488"
       inkscape:export-filename=".\rider.png"
       inkscape:export-xdpi="58.806606"
       inkscape:export-ydpi="58.806606" />
    <g
       id="g4323"
       transform="translate(-2.2146627,-2.0413777)"
       inkscape:export-filename=".\rider.png"
       inkscape:export-xdpi="58.806606"
       inkscape:export-ydpi="58.806606">
      <rect
         ry="5.2697697"
         y="90.490074"
         x="635.99268"
         height="10.539539"
         width="31.618618"
         id="rect4319"
         style="opacity:1;fill:#ffffff;fill-opacity:1;stroke:none;stroke-width:5;stroke-miterlimit:4;stroke-dasharray:none;stroke-opacity:1" />
      <rect
         ry="2.6297486"
         y="93.130096"
         x="640.65686"
         height="5.2594972"
         width="22.290251"
         id="rect4321"
         style="opacity:1;fill:#b3b3b3;fill-opacity:1;stroke:none;stroke-width:5;stroke-miterlimit:4;stroke-dasharray:none;stroke-opacity:1" />
    </g>
    <rect
       style="opacity:1;fill:#ffffff;fill-opacity:1;stroke:none;stroke-width:5;stroke-miterlimit:4;stroke-dasharray:none;stroke-opacity:1"
       id="rect4338"
       width="120.71799"
       height="120.71799"
       x="22.540703"
       y="141.21693"
       inkscape:export-xdpi="71.571762"
       inkscape:export-ydpi="71.571762" />
    <rect
       y="140.4729"
       x="152.73625"
       height="120.71799"
       width="120.71799"
       id="rect4350"
       style="opacity:1;fill:#ffffff;fill-opacity:1;stroke:none;stroke-width:5;stroke-miterlimit:4;stroke-dasharray:none;stroke-opacity:1"
       inkscape:export-xdpi="71.57177"
       inkscape:export-ydpi="71.57177" />
    <rect
       style="opacity:1;fill:#f2f2f2;fill-opacity:1;stroke:none;stroke-width:5;stroke-miterlimit:4;stroke-dasharray:none;stroke-opacity:1"
       id="rect4354"
       width="120.71799"
       height="16.553288"
       x="152.73625"
       y="212.42007"
       ry="5.9522686" />
    <rect
       style="opacity:1;fill:#e6e6e6;fill-opacity:1;stroke:none;stroke-width:5;stroke-miterlimit:4;stroke-dasharray:none;stroke-opacity:1"
       id="rect4356"
       width="51.090305"
       height="14.384649"
       x="222.36394"
       y="195.01143"
       ry="4.712214" />
    <rect
       style="opacity:1;fill:#e6e6e6;fill-opacity:1;stroke:none;stroke-width:5;stroke-miterlimit:4;stroke-dasharray:none;stroke-opacity:1"
       id="rect4358"
       width="11.408515"
       height="21.080952"
       x="262.04575"
       y="172.69043"
       ry="5.7042575" />
    <rect
       inkscape:export-ydpi="71.57177"
       inkscape:export-xdpi="71.57177"
       style="opacity:1;fill:#ffffff;fill-opacity:1;stroke:none;stroke-width:5;stroke-miterlimit:4;stroke-dasharray:none;stroke-opacity:1"
       id="rect4368"
       width="120.71799"
       height="120.71799"
       x="283.66855"
       y="144.58636" />
    <rect
       style="opacity:1;fill:#f2f2f2;fill-opacity:1;stroke:none;stroke-width:5;stroke-miterlimit:4;stroke-dasharray:none;stroke-opacity:1"
       id="rect4370"
       width="103.81927"
       height="27.708523"
       x="292.11792"
       y="230.48398"
       ry="11.083409" />
    <path
       style="opacity:1;fill:#e6e6e6;fill-opacity:1;stroke:none;stroke-width:5;stroke-miterlimit:4;stroke-dasharray:none;stroke-opacity:1"
       d="m 313.70821,200.32065 c -8.85232,0 -15.97852,7.12619 -15.97852,15.97851 l 0,12.08008 92.59571,0 0,-12.08008 c 0,-8.85232 -7.12815,-15.97851 -15.98047,-15.97851 l -60.63672,0 z"
       id="rect4372"
       inkscape:connector-curvature="0" />
    <rect
       style="opacity:1;fill:#f2f2f2;fill-opacity:1;stroke:none;stroke-width:5;stroke-miterlimit:4;stroke-dasharray:none;stroke-opacity:1"
       id="rect4379"
       width="23.850374"
       height="48.402229"
       x="389.26376"
       y="93.807594"
       ry="11.925187"
       transform="matrix(0.98911056,0.14717439,-0.14717439,0.98911056,0,0)" />
    <rect
       y="149.84747"
       x="417.65155"
       height="120.71799"
       width="120.71799"
       id="rect4397"
       style="opacity:1;fill:#ffffff;fill-opacity:1;stroke:none;stroke-width:5;stroke-miterlimit:4;stroke-dasharray:none;stroke-opacity:1"
       inkscape:export-xdpi="71.571785"
       inkscape:export-ydpi="71.571785" />
    <rect
       style="opacity:1;fill:#e6e6e6;fill-opacity:1;stroke:none;stroke-width:5;stroke-miterlimit:4;stroke-dasharray:none;stroke-opacity:1"
       id="rect4404"
       width="26.6563"
       height="45.947044"
       x="540.44983"
       y="29.967129"
       ry="14.672165"
       transform="matrix(0.96592583,0.25881905,-0.25881905,0.96592583,0,0)" />
    <rect
       style="opacity:1;fill:#f2f2f2;fill-opacity:1;stroke:#ffffff;stroke-width:3;stroke-miterlimit:4;stroke-dasharray:none;stroke-opacity:1"
       id="rect4399"
       width="109.74773"
       height="39.599571"
       x="420.73615"
       y="207.45949"
       ry="19.799786" />
    <rect
       inkscape:export-ydpi="71.571785"
       inkscape:export-xdpi="71.571785"
       style="opacity:1;fill:#ffffff;fill-opacity:1;stroke:none;stroke-width:5;stroke-miterlimit:4;stroke-dasharray:none;stroke-opacity:1"
       id="rect4410"
       width="120.71799"
       height="120.71799"
       x="583.55194"
       y="165.63081" />
    <rect
       style="opacity:1;fill:#f2f2f2;fill-opacity:1;stroke:none;stroke-width:3;stroke-miterlimit:4;stroke-dasharray:none;stroke-opacity:1"
       id="rect4414"
       width="90.140381"
       height="116.44595"
       x="599.41595"
       y="167.79393"
       ry="11.574446" />
    <rect
       style="opacity:1;fill:#e6e6e6;fill-opacity:1;stroke:#ffffff;stroke-width:3;stroke-miterlimit:4;stroke-dasharray:none;stroke-opacity:1"
       id="rect4416"
       width="62.08112"
       height="26.6563"
       x="613.44556"
       y="174.45801"
       ry="11.5744" />
    <rect
       style="opacity:1;fill:#ffffff;fill-opacity:1;stroke:#ffffff;stroke-width:3;stroke-miterlimit:4;stroke-dasharray:none;stroke-opacity:1"
       id="rect4418"
       width="1.4029632"
       height="77.162971"
       x="612.74414"
       y="201.81578"
       ry="0.70148158" />
    <rect
       ry="0.70148158"
       y="201.81578"
       x="674.12378"
       height="77.162971"
       width="1.4029632"
       id="rect4420"
       style="opacity:1;fill:#ffffff;fill-opacity:1;stroke:#ffffff;stroke-width:3;stroke-miterlimit:4;stroke-dasharray:none;stroke-opacity:1" />
    <rect
       style="opacity:1;fill:#ffffff;fill-opacity:1;stroke:#ffffff;stroke-width:2.92385983;stroke-miterlimit:4;stroke-dasharray:none;stroke-opacity:1"
       id="rect4422"
       width="1.4791032"
       height="69.522812"
       x="658.74078"
       y="209.494"
       ry="0.6320256" />
    <rect
       ry="0.6320256"
       y="209.494"
       x="643.39587"
       height="69.522812"
       width="1.4791032"
       id="rect4424"
       style="opacity:1;fill:#ffffff;fill-opacity:1;stroke:#ffffff;stroke-width:2.92385983;stroke-miterlimit:4;stroke-dasharray:none;stroke-opacity:1" />
    <rect
       style="opacity:1;fill:#ffffff;fill-opacity:1;stroke:#ffffff;stroke-width:2.92385983;stroke-miterlimit:4;stroke-dasharray:none;stroke-opacity:1"
       id="rect4426"
       width="1.4791032"
       height="69.522812"
       x="628.05096"
       y="209.494"
       ry="0.6320256" />
    <rect
       y="275.75937"
       x="21.463585"
       height="124.45764"
       width="124.45764"
       id="rect4428"
       style="opacity:1;fill:#ffffff;fill-opacity:1;stroke:none;stroke-width:5;stroke-miterlimit:4;stroke-dasharray:none;stroke-opacity:1"
       inkscape:export-xdpi="69.421204"
       inkscape:export-ydpi="69.421204" />
    <g
       id="g4452"
       transform="translate(2.362007,4.3600063)">
      <rect
         ry="11.060449"
         y="332.8891"
         x="114.59349"
         height="22.120897"
         width="27.9231"
         id="rect4432"
         style="opacity:1;fill:#e6e6e6;fill-opacity:1;stroke:none;stroke-width:3;stroke-miterlimit:4;stroke-dasharray:none;stroke-opacity:1" />
      <rect
         transform="matrix(0.96592583,0.25881904,-0.25881904,0.96592583,0,0)"
         ry="8.2335234"
         y="270.30893"
         x="137.22632"
         height="58.747299"
         width="13.417593"
         id="rect4434"
         style="opacity:1;fill:#e6e6e6;fill-opacity:1;stroke:none;stroke-width:3;stroke-miterlimit:4;stroke-dasharray:none;stroke-opacity:1" />
      <rect
         ry="15.316836"
         y="348.4559"
         x="23.048672"
         height="30.633673"
         width="117.54781"
         id="rect4430"
         style="opacity:1;fill:#f2f2f2;fill-opacity:1;stroke:#ffffff;stroke-width:2.94678855;stroke-miterlimit:4;stroke-dasharray:none;stroke-opacity:1" />
      <g
         transform="matrix(0.96592583,0.25881905,-0.25881905,0.96592583,76.97811,-4.4548169)"
         id="g4448">
        <path
           style="fill:#f2f2f2;fill-opacity:1;fill-rule:evenodd;stroke:#ffffff;stroke-width:3;stroke-linecap:butt;stroke-linejoin:miter;stroke-miterlimit:4;stroke-dasharray:none;stroke-opacity:1"
           d="m 70.714341,298.0759 c -0.11506,3.91204 19.732126,0.89558 46.780249,7.97803 -14.28642,-10.32758 -24.853261,-19.02245 -46.417611,-20.30771 z"
           id="path4438"
           inkscape:connector-curvature="0"
           sodipodi:nodetypes="sccs" />
        <path
           sodipodi:nodetypes="sccs"
           inkscape:connector-curvature="0"
           id="path4446"
           d="m 70.501414,298.0759 c 0.11506,3.91204 -19.732126,0.89558 -46.780249,7.97803 14.28642,-10.32758 24.853261,-19.02245 46.417611,-20.30771 z"
           style="fill:#f2f2f2;fill-opacity:1;fill-rule:evenodd;stroke:#ffffff;stroke-width:3;stroke-linecap:butt;stroke-linejoin:miter;stroke-miterlimit:4;stroke-dasharray:none;stroke-opacity:1" />
      </g>
    </g>
    <rect
       style="opacity:1;fill:#f2f2f2;fill-opacity:1;stroke:none;stroke-width:2;stroke-miterlimit:4;stroke-dasharray:none;stroke-opacity:1"
       id="rect4278"
       width="49.611935"
       height="7.6701531"
       x="57.976734"
       y="252.14024"
       ry="3.8350766" />
    <rect
       style="opacity:1;fill:#e6e6e6;fill-opacity:1;stroke:#ffffff;stroke-width:1;stroke-miterlimit:4;stroke-dasharray:none;stroke-opacity:1"
       id="rect4342"
       width="11.930258"
       height="118.89164"
       x="56.887886"
       y="142.13011"
       ry="9.630887" />
    <rect
       ry="9.630887"
       y="142.13011"
       x="70.252342"
       height="118.89164"
       width="11.930258"
       id="rect4466"
       style="opacity:1;fill:#e6e6e6;fill-opacity:1;stroke:#ffffff;stroke-width:1;stroke-miterlimit:4;stroke-dasharray:none;stroke-opacity:1" />
    <rect
       style="opacity:1;fill:#e6e6e6;fill-opacity:1;stroke:#ffffff;stroke-width:1;stroke-miterlimit:4;stroke-dasharray:none;stroke-opacity:1"
       id="rect4468"
       width="11.930258"
       height="118.89164"
       x="83.616798"
       y="142.13011"
       ry="9.630887" />
    <rect
       ry="9.630887"
       y="142.13011"
       x="96.981247"
       height="118.89164"
       width="11.930258"
       id="rect4470"
       style="opacity:1;fill:#e6e6e6;fill-opacity:1;stroke:#ffffff;stroke-width:1;stroke-miterlimit:4;stroke-dasharray:none;stroke-opacity:1" />
    <path
       style="opacity:1;fill:#f2f2f2;fill-opacity:1;stroke:#ffffff;stroke-width:2.52021599;stroke-miterlimit:4;stroke-dasharray:none;stroke-opacity:1"
       d="m 67.27279,143.39007 31.278186,0 c 3.133534,0 6.110674,1.76341 5.656204,3.90258 l -2.91716,13.73115 c -0.45446,2.13917 -2.522669,3.90258 -5.65621,3.90258 l -24.568706,0 c -3.13354,0 -5.069648,-1.77877 -5.65621,-3.90258 l -3.792315,-13.73115 c -0.586562,-2.12381 2.522671,-3.90258 5.656211,-3.90258 z"
       id="rect4472"
       inkscape:connector-curvature="0"
       sodipodi:nodetypes="sssssssss" />
    <rect
       inkscape:export-ydpi="69.421211"
       inkscape:export-xdpi="69.421211"
       style="opacity:1;fill:#ffffff;fill-opacity:1;stroke:none;stroke-width:5;stroke-miterlimit:4;stroke-dasharray:none;stroke-opacity:1"
       id="rect4489"
       width="124.45764"
       height="124.45764"
       x="161.3577"
       y="273.45184" />
    <g
       id="g4497"
       transform="translate(0.33281326,-18.44547)">
      <rect
         transform="matrix(0.99250028,-0.12224239,0.12224239,0.99250028,0,0)"
         ry="2.8219926"
         y="363.5072"
         x="197.97571"
         height="11.425035"
         width="38.250088"
         id="rect4495"
         style="opacity:1;fill:#f2f2f2;fill-opacity:1;stroke:none;stroke-width:1.95885897;stroke-miterlimit:4;stroke-dasharray:none;stroke-opacity:1" />
      <rect
         ry="3.9184899"
         y="341.64243"
         x="164.84431"
         height="17.594929"
         width="116.81879"
         id="rect4493"
         style="opacity:1;fill:#e6e6e6;fill-opacity:1;stroke:#ffffff;stroke-width:3;stroke-miterlimit:4;stroke-dasharray:none;stroke-opacity:1" />
      <rect
         ry="3.9184897"
         y="353.22079"
         x="162.43326"
         height="21.551693"
         width="121.64089"
         id="rect4491"
         style="opacity:1;fill:#f2f2f2;fill-opacity:1;stroke:#ffffff;stroke-width:2.50453329;stroke-miterlimit:4;stroke-dasharray:none;stroke-opacity:1" />
    </g>
    <rect
       y="272.00964"
       x="295.19455"
       height="124.45764"
       width="124.45764"
       id="rect4502"
       style="opacity:1;fill:#ffffff;fill-opacity:1;stroke:none;stroke-width:5;stroke-miterlimit:4;stroke-dasharray:none;stroke-opacity:1"
       inkscape:export-xdpi="69.421211"
       inkscape:export-ydpi="69.421211" />
    <path
       style="opacity:1;fill:#e6e6e6;fill-opacity:1;stroke:none;stroke-width:3;stroke-miterlimit:4;stroke-dasharray:none;stroke-opacity:1"
       d="m 357.52321,272.12805 c 19.158,5.76883 35.62252,31.01928 35.62252,52.35213 l 0,32.59389 c 0,21.33284 -15.88764,38.50693 -35.62252,38.50693 -19.73487,0 -35.62252,-17.17409 -35.62252,-38.50693 l 0,-32.59389 c 0,-21.33285 15.88765,-45.42953 35.62252,-52.35213 z"
       id="rect4504"
       inkscape:connector-curvature="0"
       sodipodi:nodetypes="csssssc" />
    <rect
       style="opacity:1;fill:#f2f2f2;fill-opacity:1;stroke:#ffffff;stroke-width:3;stroke-miterlimit:4;stroke-dasharray:none;stroke-opacity:1"
       id="rect4510"
       width="37.785831"
       height="74.129456"
       x="338.63028"
       y="306.30835"
       ry="14.566294" />
    <g
       id="g4518"
       transform="translate(0.43266661,0)">
      <rect
         y="311.6445"
         x="346.99509"
         height="63.457123"
         width="2.5959733"
         id="rect4512"
         style="opacity:1;fill:#ffffff;fill-opacity:1;stroke:none;stroke-width:3;stroke-miterlimit:4;stroke-dasharray:none;stroke-opacity:1" />
      <rect
         style="opacity:1;fill:#ffffff;fill-opacity:1;stroke:none;stroke-width:3;stroke-miterlimit:4;stroke-dasharray:none;stroke-opacity:1"
         id="rect4514"
         width="2.5959733"
         height="63.457123"
         x="355.79254"
         y="311.6445" />
      <rect
         y="311.6445"
         x="364.59003"
         height="63.457123"
         width="2.5959733"
         id="rect4516"
         style="opacity:1;fill:#ffffff;fill-opacity:1;stroke:none;stroke-width:3;stroke-miterlimit:4;stroke-dasharray:none;stroke-opacity:1" />
    </g>
    <ellipse
       style="opacity:1;fill:#ffffff;fill-opacity:1;stroke:#ffffff;stroke-width:3;stroke-miterlimit:4;stroke-dasharray:none;stroke-opacity:1"
       id="path4523"
       cx="357.52322"
       cy="284.24258"
       rx="3.4612975"
       ry="1.1537659" />
    <rect
       inkscape:export-ydpi="69.421227"
       inkscape:export-xdpi="69.421227"
       style="opacity:1;fill:#ffffff;fill-opacity:1;stroke:none;stroke-width:5;stroke-miterlimit:4;stroke-dasharray:none;stroke-opacity:1"
       id="rect4525"
       width="124.45764"
       height="124.45764"
       x="425.2869"
       y="271.87067" />
    <circle
       style="opacity:1;fill:#e6e6e6;fill-opacity:1;stroke:none;stroke-width:3;stroke-miterlimit:4;stroke-dasharray:none;stroke-opacity:1"
       id="path4527"
       cx="472.39948"
       cy="325.21747"
       r="41.196705" />
    <rect
       style="opacity:1;fill:#f2f2f2;fill-opacity:1;stroke:#ffffff;stroke-width:2;stroke-miterlimit:4;stroke-dasharray:none;stroke-opacity:1"
       id="rect4529"
       width="32.81469"
       height="32.81469"
       x="477.21469"
       y="350.36349"
       ry="7.8469911" />
    <rect
       ry="7.8469911"
       y="350.36349"
       x="510.01395"
       height="32.81469"
       width="32.81469"
       id="rect4531"
       style="opacity:1;fill:#f2f2f2;fill-opacity:1;stroke:#ffffff;stroke-width:2;stroke-miterlimit:4;stroke-dasharray:none;stroke-opacity:1" />
    <rect
       style="opacity:1;fill:#f2f2f2;fill-opacity:1;stroke:#ffffff;stroke-width:2;stroke-miterlimit:4;stroke-dasharray:none;stroke-opacity:1"
       id="rect4533"
       width="32.81469"
       height="32.81469"
       x="493.61432"
       y="318.71808"
       ry="7.8469911" />
    <rect
       y="296.96506"
       x="580.46844"
       height="124.45764"
       width="124.45764"
       id="rect4551"
       style="opacity:1;fill:#ffffff;fill-opacity:1;stroke:none;stroke-width:5;stroke-miterlimit:4;stroke-dasharray:none;stroke-opacity:1"
       inkscape:export-xdpi="69.421211"
       inkscape:export-ydpi="69.421211" />
    <g
       id="g4564"
       transform="matrix(0.96592583,0.25881905,-0.25881905,0.96592583,104.69766,-139.75154)">
      <rect
         ry="3.7497392"
         y="356.06448"
         x="597.07385"
         height="13.268308"
         width="40.958691"
         id="rect4559"
         style="opacity:1;fill:#f2f2f2;fill-opacity:1;stroke:none;stroke-width:2;stroke-miterlimit:4;stroke-dasharray:none;stroke-opacity:1" />
      <rect
         ry="11.537659"
         y="303.68646"
         x="594.59613"
         height="60.624615"
         width="45.914101"
         id="rect4553"
         style="opacity:1;fill:#f2f2f2;fill-opacity:1;stroke:#ffffff;stroke-width:2.23653388;stroke-miterlimit:4;stroke-dasharray:none;stroke-opacity:1" />
    </g>
    <g
       id="g4584"
       transform="matrix(1,0,0,1.0535836,-1.6714521,-14.543286)">
      <rect
         ry="1.00955"
         y="395.58096"
         x="635.43665"
         height="4.326622"
         width="62.014915"
         id="rect4574"
         style="opacity:1;fill:#f2f2f2;fill-opacity:1;stroke:none;stroke-width:2;stroke-miterlimit:4;stroke-dasharray:none;stroke-opacity:1" />
      <g
         id="g4580">
        <ellipse
           transform="matrix(-0.8660254,0.5,0.5,0.8660254,0,0)"
           ry="33.459209"
           rx="11.104997"
           cy="662.54321"
           cx="-406.00848"
           id="ellipse4570"
           style="opacity:1;fill:#f2f2f2;fill-opacity:1;stroke:none;stroke-width:2;stroke-miterlimit:4;stroke-dasharray:none;stroke-opacity:1" />
        <ellipse
           style="opacity:1;fill:#f2f2f2;fill-opacity:1;stroke:none;stroke-width:2;stroke-miterlimit:4;stroke-dasharray:none;stroke-opacity:1"
           id="ellipse4578"
           cx="748.30652"
           cy="-3.9009109"
           rx="11.104997"
           ry="33.459209"
           transform="matrix(0.8660254,0.5,-0.5,0.8660254,0,0)" />
      </g>
      <rect
         ry="1.0095451"
         y="341.06555"
         x="665.43457"
         height="42.112453"
         width="2.0190902"
         id="rect4572"
         style="opacity:1;fill:#ffffff;fill-opacity:1;stroke:none;stroke-width:2;stroke-miterlimit:4;stroke-dasharray:none;stroke-opacity:1" />
    </g>
    <rect
       inkscape:export-ydpi="69.421204"
       inkscape:export-xdpi="69.421204"
       style="opacity:1;fill:#ffffff;fill-opacity:1;stroke:none;stroke-width:5;stroke-miterlimit:4;stroke-dasharray:none;stroke-opacity:1"
       id="rect4602"
       width="124.45764"
       height="124.45764"
       x="21.463585"
       y="431.51776" />
    <g
       id="g4630"
       transform="matrix(0.50870993,-0.50870993,0.50870993,0.50870993,-265.31134,340.76923)">
      <circle
         r="60.140049"
         cy="497.55533"
         cx="224.38245"
         id="path4620"
         style="opacity:1;fill:#e6e6e6;fill-opacity:1;stroke:none;stroke-width:2;stroke-miterlimit:4;stroke-dasharray:none;stroke-opacity:1" />
      <path
         style="opacity:1;fill:#f2f2f2;fill-opacity:1;stroke:none;stroke-width:5;stroke-miterlimit:4;stroke-dasharray:none;stroke-opacity:1"
         d="m 224.38342,440.4196 a 57.136444,57.136444 0 0 0 -1.8125,0.0645 76.489663,76.489663 0 0 0 -25.70313,57.07226 76.489663,76.489663 0 0 0 25.64649,57.04102 57.136444,57.136444 0 0 0 1.86914,0.0937 57.136444,57.136444 0 0 0 1.83984,-0.0918 76.489663,76.489663 0 0 0 25.67383,-57.04297 76.489663,76.489663 0 0 0 -25.67578,-57.07226 57.136444,57.136444 0 0 0 -1.83789,-0.0645 z"
         id="path4614"
         inkscape:export-filename=".\ball.png"
         inkscape:export-xdpi="75.609413"
         inkscape:export-ydpi="75.609413"
         inkscape:connector-curvature="0" />
      <path
         style="opacity:1;fill:#ffffff;fill-opacity:1;stroke:none;stroke-width:5;stroke-miterlimit:4;stroke-dasharray:none;stroke-opacity:1"
         d="m 218.91272,440.736 a 57.136444,57.136444 0 0 0 -51.66602,56.81836 57.136444,57.136444 0 0 0 51.61133,56.86133 78.784351,78.784351 0 0 1 -24.28711,-56.85937 78.784351,78.784351 0 0 1 24.3418,-56.82032 z"
         id="path4616"
         inkscape:export-filename=".\ball.png"
         inkscape:export-xdpi="75.609413"
         inkscape:export-ydpi="75.609413"
         inkscape:connector-curvature="0" />
      <path
         style="opacity:1;fill:#ffffff;fill-opacity:1;stroke:none;stroke-width:5;stroke-miterlimit:4;stroke-dasharray:none;stroke-opacity:1"
         d="m 229.97131,440.74967 a 78.784351,78.784351 0 0 1 24.22265,56.80665 78.784351,78.784351 0 0 1 -24.39062,56.86327 57.136444,57.136444 0 0 0 51.71484,-56.86523 57.136444,57.136444 0 0 0 -51.54687,-56.80469 z"
         id="path4618"
         inkscape:export-filename=".\ball.png"
         inkscape:export-xdpi="75.609413"
         inkscape:export-ydpi="75.609413"
         inkscape:connector-curvature="0" />
    </g>
    <path
       inkscape:export-ydpi="76.883652"
       inkscape:export-xdpi="76.883652"
       inkscape:export-filename=".\ring.png"
       inkscape:connector-curvature="0"
       id="path4606"
       d="m 85.518264,485.54692 a 37.197083,37.197083 0 0 0 -50.37973,0.0155 l 12.557724,12.55773 a 19.436316,19.436316 0 0 1 25.25607,-0.007 l 12.565936,-12.56594 z"
       style="opacity:1;fill:#e6e6e6;fill-opacity:1;stroke:#ffffff;stroke-width:3;stroke-miterlimit:4;stroke-dasharray:none;stroke-opacity:1" />
    <path
       inkscape:export-ydpi="76.883652"
       inkscape:export-xdpi="76.883652"
       inkscape:export-filename=".\ring.png"
       inkscape:connector-curvature="0"
       id="path4608"
       d="M 87.635875,487.69375 75.076333,500.2533 a 19.436316,19.436316 0 0 1 0.0082,25.25515 l 12.566848,12.56686 a 37.197083,37.197083 0 0 0 -0.01554,-50.38156 z"
       style="opacity:1;fill:#f2f2f2;fill-opacity:1;stroke:#ffffff;stroke-width:3;stroke-miterlimit:4;stroke-dasharray:none;stroke-opacity:1" />
    <path
       inkscape:export-ydpi="76.883652"
       inkscape:export-xdpi="76.883652"
       inkscape:export-filename=".\ring.png"
       inkscape:connector-curvature="0"
       id="path4610"
       d="m 32.988974,487.67914 a 37.197083,37.197083 0 0 0 0.01554,50.38155 l 12.55861,-12.55863 a 19.436316,19.436316 0 0 1 -0.0073,-25.25607 l -12.56685,-12.56685 z"
       style="opacity:1;fill:#f2f2f2;fill-opacity:1;stroke:#ffffff;stroke-width:3;stroke-miterlimit:4;stroke-dasharray:none;stroke-opacity:1" />
    <path
       inkscape:export-ydpi="76.883652"
       inkscape:export-xdpi="76.883652"
       inkscape:export-filename=".\ring.png"
       inkscape:connector-curvature="0"
       id="path4612"
       d="m 72.944109,527.63428 a 19.436316,19.436316 0 0 1 -25.25607,0.007 l -12.566848,12.56685 a 37.197083,37.197083 0 0 0 50.381554,-0.0155 L 72.944109,527.63428 Z"
       style="opacity:1;fill:#e6e6e6;fill-opacity:1;stroke:#ffffff;stroke-width:3;stroke-miterlimit:4;stroke-dasharray:none;stroke-opacity:1" />
    <rect
       y="426.07449"
       x="187.18118"
       height="124.45764"
       width="124.45764"
       id="rect4253"
       style="opacity:1;fill:#ffffff;fill-opacity:1;stroke:none;stroke-width:5;stroke-miterlimit:4;stroke-dasharray:none;stroke-opacity:1"
       inkscape:export-xdpi="69.421211"
       inkscape:export-ydpi="69.421211"
       inkscape:export-filename=".\balloon.png" />
    <g
       id="g4277"
       transform="translate(0.97488492,5.1009224)">
      <g
         transform="matrix(0.80731274,0.2163188,-0.2163188,0.80731274,155.10918,51.794431)"
         style="fill:#f2f2f2;fill-opacity:1"
         id="g4248">
        <path
           style="opacity:1;fill:#f2f2f2;fill-opacity:1;stroke:none;stroke-width:1;stroke-miterlimit:4;stroke-dasharray:none;stroke-opacity:1"
           d="m 312.09941,467.72186 c 0,17.29039 -20.32657,48.29533 -30.82164,48.29532 -11.46583,-1e-5 -31.7924,-31.00493 -31.7924,-48.29532 0,-17.29039 14.01663,-31.30702 31.30702,-31.30702 17.29039,0 31.30702,14.01663 31.30702,31.30702 z"
           id="path4241"
           inkscape:connector-curvature="0"
           sodipodi:nodetypes="sssss" />
        <rect
           style="opacity:1;fill:#f2f2f2;fill-opacity:1;stroke:none;stroke-width:1;stroke-miterlimit:4;stroke-dasharray:none;stroke-opacity:1"
           id="rect4244"
           width="9.5155315"
           height="2.0314057"
           x="276.03464"
           y="520.56158"
           ry="1.0157028"
           rx="0" />
        <path
           sodipodi:type="star"
           style="opacity:1;fill:#f2f2f2;fill-opacity:1;stroke:none;stroke-width:1;stroke-miterlimit:4;stroke-dasharray:none;stroke-opacity:1"
           id="path4246"
           sodipodi:sides="3"
           sodipodi:cx="281.83081"
           sodipodi:cy="517.56793"
           sodipodi:r1="5.3458042"
           sodipodi:r2="2.6729021"
           sodipodi:arg1="0.52359878"
           sodipodi:arg2="1.5707963"
           inkscape:flatsided="true"
           inkscape:rounded="0.01"
           inkscape:randomized="0"
           d="m 286.46041,520.24083 c -0.0463,0.0802 -9.21291,0.0802 -9.2592,0 -0.0463,-0.0802 4.53701,-8.0187 4.6296,-8.0187 0.0926,0 4.6759,7.93852 4.6296,8.0187 z"
           inkscape:transform-center-y="-1.5484202"
           transform="matrix(0.86144636,0,0,1.1852771,38.010264,-95.544524)" />
      </g>
      <g
         transform="matrix(0.80731274,-0.2163188,0.2163188,0.80731274,-111.61349,166.62288)"
         style="fill:#f2f2f2;fill-opacity:1"
         id="g4263">
        <path
           style="opacity:1;fill:#f2f2f2;fill-opacity:1;stroke:none;stroke-width:1;stroke-miterlimit:4;stroke-dasharray:none;stroke-opacity:1"
           d="m 312.09941,467.72186 c 0,17.29039 -20.32657,48.29533 -30.82164,48.29532 -11.46583,-1e-5 -31.7924,-31.00493 -31.7924,-48.29532 0,-17.29039 14.01663,-31.30702 31.30702,-31.30702 17.29039,0 31.30702,14.01663 31.30702,31.30702 z"
           id="path4265"
           inkscape:connector-curvature="0"
           sodipodi:nodetypes="sssss" />
        <rect
           style="opacity:1;fill:#f2f2f2;fill-opacity:1;stroke:none;stroke-width:1;stroke-miterlimit:4;stroke-dasharray:none;stroke-opacity:1"
           id="rect4267"
           width="9.5155315"
           height="2.0314057"
           x="276.03464"
           y="520.56158"
           ry="1.0157028"
           rx="0" />
        <path
           sodipodi:type="star"
           style="opacity:1;fill:#f2f2f2;fill-opacity:1;stroke:none;stroke-width:1;stroke-miterlimit:4;stroke-dasharray:none;stroke-opacity:1"
           id="path4269"
           sodipodi:sides="3"
           sodipodi:cx="281.83081"
           sodipodi:cy="517.56793"
           sodipodi:r1="5.3458042"
           sodipodi:r2="2.6729021"
           sodipodi:arg1="0.52359878"
           sodipodi:arg2="1.5707963"
           inkscape:flatsided="true"
           inkscape:rounded="0.01"
           inkscape:randomized="0"
           d="m 286.46041,520.24083 c -0.0463,0.0802 -9.21291,0.0802 -9.2592,0 -0.0463,-0.0802 4.53701,-8.0187 4.6296,-8.0187 0.0926,0 4.6759,7.93852 4.6296,8.0187 z"
           inkscape:transform-center-y="-1.5484202"
           transform="matrix(0.86144636,0,0,1.1852771,38.010264,-95.544524)" />
      </g>
      <path
         inkscape:connector-curvature="0"
         style="opacity:1;fill:#ffffff;fill-opacity:1;stroke:none;stroke-width:2;stroke-miterlimit:4;stroke-dasharray:none;stroke-opacity:1"
         d="m 250.25,431.13486 c -15.84145,0 -28.68336,12.8419 -28.68336,28.68335 0,14.84934 16.3628,40.73853 27.06475,43.9232 -0.92033,2.1812 -1.67059,4.00448 -1.84343,4.49616 -0.49959,0.0179 -0.89709,0.42082 -0.89709,0.92493 0,0.51554 0.41365,0.9292 0.9292,0.9292 l 6.85772,0 c 0.51554,0 0.93134,-0.41366 0.93134,-0.9292 0,-0.50418 -0.39954,-0.90717 -0.89922,-0.92493 -0.16642,-0.47344 -0.8798,-2.21148 -1.77277,-4.3313 9.88704,-2.18728 26.99622,-28.90239 26.99622,-44.08806 0,-15.84145 -12.8419,-28.68335 -28.68336,-28.68335 z"
         id="path4275" />
      <path
         id="path4257"
         d="m 250.25,434.59961 c -14.45116,0 -26.16602,11.71485 -26.16602,26.16601 0,13.54611 14.92675,37.16319 24.68946,40.06836 -0.83955,1.98978 -1.52397,3.65304 -1.68164,4.10157 -0.45575,0.0163 -0.81836,0.38388 -0.81836,0.84375 0,0.4703 0.37735,0.84765 0.84765,0.84765 l 6.25586,0 c 0.4703,0 0.84961,-0.37735 0.84961,-0.84765 0,-0.45993 -0.36448,-0.82755 -0.82031,-0.84375 -0.15182,-0.43189 -0.80258,-2.01741 -1.61719,-3.95117 9.01933,-1.99532 24.62696,-26.36584 24.62696,-40.21876 0,-14.45116 -11.71486,-26.16601 -26.16602,-26.16601 z"
         style="opacity:1;fill:#e6e6e6;fill-opacity:1;stroke:none;stroke-width:2;stroke-miterlimit:4;stroke-dasharray:none;stroke-opacity:1"
         inkscape:connector-curvature="0" />
    </g>
    <rect
       style="opacity:1;fill:#ffffff;fill-opacity:1;stroke:none;stroke-width:2;stroke-miterlimit:4;stroke-dasharray:none;stroke-opacity:1"
       id="rect4269"
       width="107.87399"
       height="107.87399"
       x="369.00928"
       y="443.38229"
       ry="0"
       inkscape:export-xdpi="80.093445"
       inkscape:export-ydpi="80.093445" />
    <g
       id="g4343"
       transform="translate(3.5917816,6.1130793)">
      <path
         sodipodi:nodetypes="ccsc"
         inkscape:connector-curvature="0"
         id="path4276"
         d="m 427.5359,472.82212 c -0.1775,0.30743 -16.152,0.30743 -16.3295,0 -1.07611,-8.69447 8.46429,-30.74378 8.46429,-30.74378 0.35423,0.0233 8.64178,22.34885 7.86521,30.74378 z"
         inkscape:transform-center-y="-5.0086732"
         style="opacity:1;fill:#e6e6e6;fill-opacity:1;stroke:none;stroke-width:2;stroke-miterlimit:4;stroke-dasharray:none;stroke-opacity:1" />
      <g
         transform="translate(0.48615611,0)"
         id="g4327">
        <rect
           style="opacity:1;fill:#b3b3b3;fill-opacity:1;stroke:none;stroke-width:2;stroke-miterlimit:4;stroke-dasharray:none;stroke-opacity:1"
           id="rect4320"
           width="8.2959442"
           height="3.3798289"
           x="-29.029154"
           y="648.25873"
           ry="1.6899145"
           transform="matrix(0.70710678,-0.70710678,0.70710678,0.70710678,0,0)" />
        <rect
           transform="matrix(-0.70710678,-0.70710678,-0.70710678,0.70710678,0,0)"
           ry="1.6899145"
           y="55.889446"
           x="-621.39844"
           height="3.3798289"
           width="8.2959442"
           id="rect4325"
           style="opacity:1;fill:#b3b3b3;fill-opacity:1;stroke:none;stroke-width:2;stroke-miterlimit:4;stroke-dasharray:none;stroke-opacity:1" />
      </g>
      <g
         transform="translate(-0.44817281,0)"
         id="g4339">
        <path
           style="opacity:1;fill:#e6e6e6;fill-opacity:1;stroke:none;stroke-width:2;stroke-miterlimit:4;stroke-dasharray:none;stroke-opacity:1"
           inkscape:transform-center-y="-4.9578257"
           d="m 472.55688,522.19676 c -4.55845,3.80407 -29.05846,-2.13485 -38.30347,-8.94362 -0.35089,-0.25842 10.15713,-12.50534 10.61494,-12.34113 11.90022,4.26855 31.97434,17.70821 27.68853,21.28475 z"
           id="path4273"
           inkscape:connector-curvature="0"
           sodipodi:nodetypes="ssss" />
        <path
           sodipodi:nodetypes="ssss"
           inkscape:connector-curvature="0"
           id="path4337"
           d="m 367.04845,522.19676 c 4.55845,3.80407 29.05846,-2.13485 38.30347,-8.94362 0.35089,-0.25842 -10.15713,-12.50534 -10.61494,-12.34113 -11.90022,4.26855 -31.97434,17.70821 -27.68853,21.28475 z"
           inkscape:transform-center-y="-4.9578257"
           style="opacity:1;fill:#e6e6e6;fill-opacity:1;stroke:none;stroke-width:2;stroke-miterlimit:4;stroke-dasharray:none;stroke-opacity:1" />
      </g>
      <ellipse
         ry="25.736557"
         rx="28.764387"
         cy="495.99838"
         cx="419.35449"
         id="path4271"
         style="opacity:1;fill:#f2f2f2;fill-opacity:1;stroke:#ffffff;stroke-width:2;stroke-miterlimit:4;stroke-dasharray:none;stroke-opacity:1" />
      <path
         sodipodi:nodetypes="sacs"
         inkscape:connector-curvature="0"
         id="path4291"
         d="m 437.94431,502.09144 c 0.20801,-0.0751 -11.61068,11.3436 -18.98165,11.3436 -7.37096,0 -19.17146,-11.23017 -18.98164,-11.3436 19.11126,6.80676 19.11126,6.80676 37.96329,0 z"
         inkscape:transform-center-y="1.8480709"
         inkscape:transform-center-x="1.1799525e-005"
         style="opacity:1;fill:#ffffff;fill-opacity:1;stroke:none;stroke-width:2;stroke-miterlimit:4;stroke-dasharray:none;stroke-opacity:1" />
      <g
         transform="translate(0.05887702,0)"
         id="g4312">
        <g
           id="g4302">
          <ellipse
             ry="6.6627674"
             rx="4.311202"
             cy="489.06769"
             cx="436.34839"
             id="path4294"
             style="opacity:1;fill:#ffffff;fill-opacity:1;stroke:none;stroke-width:2;stroke-miterlimit:4;stroke-dasharray:none;stroke-opacity:1" />
          <ellipse
             ry="4.4091845"
             rx="1.8616555"
             cy="491.32129"
             cx="436.44638"
             id="path4296"
             style="opacity:1;fill:#b3b3b3;fill-opacity:1;stroke:none;stroke-width:2;stroke-miterlimit:4;stroke-dasharray:none;stroke-opacity:1" />
        </g>
        <g
           id="g4306"
           transform="translate(-34.105547,0)">
          <ellipse
             style="opacity:1;fill:#ffffff;fill-opacity:1;stroke:none;stroke-width:2;stroke-miterlimit:4;stroke-dasharray:none;stroke-opacity:1"
             id="ellipse4308"
             cx="436.34839"
             cy="489.06769"
             rx="4.311202"
             ry="6.6627674" />
          <ellipse
             style="opacity:1;fill:#b3b3b3;fill-opacity:1;stroke:none;stroke-width:2;stroke-miterlimit:4;stroke-dasharray:none;stroke-opacity:1"
             id="ellipse4310"
             cx="436.44638"
             cy="491.32129"
             rx="1.8616555"
             ry="4.4091845" />
        </g>
      </g>
    </g>
  </g>
</svg>
